<?xml version="1.0" encoding="UTF-8"?>
<svg xmlns="http://www.w3.org/2000/svg" viewBox="0 0 960 540" width="960" height="540">
  <rect width="960" height="540" fill="#ffffff"/>
  <text x="480" y="56" text-anchor="middle" font-family="WenQuanYi Micro Hei, sans-serif" font-size="32" font-weight="700" fill="#111">自适应路由</text>

  <rect x="56" y="248" width="52" height="52" rx="10" fill="#2563eb"/>
  <line x1="118" y1="274" x2="188" y2="274" stroke="#111" stroke-width="5" stroke-linecap="round"/>
  <polygon points="188,265 206,274 188,283" fill="#111"/>

  <rect x="206" y="118" width="520" height="312" rx="20" fill="#fff" stroke="#111" stroke-width="3"/>

  <rect x="248" y="168" width="22" height="22" rx="4" fill="#9ca3af" stroke="#6b7280" stroke-width="1"/>
<rect x="276" y="168" width="22" height="22" rx="4" fill="#9ca3af" stroke="#6b7280" stroke-width="1"/>
<rect x="304" y="168" width="22" height="22" rx="4" fill="#9ca3af" stroke="#6b7280" stroke-width="1"/>
<rect x="332" y="168" width="22" height="22" rx="4" fill="#9ca3af" stroke="#6b7280" stroke-width="1"/>
<rect x="360" y="168" width="22" height="22" rx="4" fill="#9ca3af" stroke="#6b7280" stroke-width="1"/>
<rect x="388" y="168" width="22" height="22" rx="4" fill="#9ca3af" stroke="#6b7280" stroke-width="1"/>
<rect x="416" y="168" width="22" height="22" rx="4" fill="#9ca3af" stroke="#6b7280" stroke-width="1"/>
<rect x="444" y="168" width="22" height="22" rx="4" fill="#9ca3af" stroke="#6b7280" stroke-width="1"/>
  <text x="480" y="187" font-family="WenQuanYi Micro Hei, sans-serif" font-size="22" fill="#6b7280">8</text>
  <line x1="726" y1="179" x2="860" y2="140" stroke="#c4c4c4" stroke-width="3" stroke-dasharray="7 8"/>
  <polygon points="860,133 878,140 860,147" fill="#c4c4c4"/>

  <rect x="248" y="261" width="22" height="22" rx="4" fill="#16a34a" stroke="#15803d" stroke-width="1"/>
<rect x="276" y="261" width="22" height="22" rx="4" fill="#16a34a" stroke="#15803d" stroke-width="1"/>
  <text x="316" y="280" font-family="WenQuanYi Micro Hei, sans-serif" font-size="22" font-weight="700" fill="#166534">2</text>
  <line x1="348" y1="274" x2="860" y2="274" stroke="#16a34a" stroke-width="8" stroke-linecap="round"/>
  <polygon points="860,262 886,274 860,286" fill="#16a34a"/>

  <rect x="248" y="354" width="22" height="22" rx="4" fill="#f97316" stroke="#ea580c" stroke-width="1"/>
<rect x="276" y="354" width="22" height="22" rx="4" fill="#f97316" stroke="#ea580c" stroke-width="1"/>
<rect x="304" y="354" width="22" height="22" rx="4" fill="#f97316" stroke="#ea580c" stroke-width="1"/>
<rect x="332" y="354" width="22" height="22" rx="4" fill="#f97316" stroke="#ea580c" stroke-width="1"/>
<rect x="360" y="354" width="22" height="22" rx="4" fill="#f97316" stroke="#ea580c" stroke-width="1"/>
  <text x="400" y="373" font-family="WenQuanYi Micro Hei, sans-serif" font-size="22" fill="#c2410c">5</text>
  <line x1="726" y1="365" x2="860" y2="404" stroke="#c4c4c4" stroke-width="3" stroke-dasharray="7 8"/>
  <polygon points="860,397 878,404 860,411" fill="#c4c4c4"/>
</svg>
